{"title":"When Pigs Have Wings.2011.1080p.BluRay.x264 . NVEE","uid":8360368,"size":1761352405,"categoryP":"video","categoryS":"hd___movies","magnet":"?xt=urn:btih:32735e42713bf60b0a18d7bb9c5c6f7aa28b3bc0&amp;dn=When+Pigs+Have+Wings.2011.1080p.BluRay.x264+.+NVEE&amp;tr=udp%3A%2F%2Ftracker.openbittorrent.com%3A80&amp;tr=udp%3A%2F%2Fopen.demonii.com%3A1337&amp;tr=udp%3A%2F%2Ftracker.coppersurfer.tk%3A6969&amp;tr=udp%3A%2F%2Fexodus.desync.com%3A6969","seeders":0,"leechers":1,"uploader":".NVEE","files":5,"time":1365608629,"description":"  FULL_INFOS\n\n  100% SYNCED &gt;&gt;&gt; GUARENTEED\n\n  Source : BluRay\n\n  Subs : English &quot;only&quot; .srt\n  \n\n  Spoken Language : Arabic\n\n\n  General \n\nComplete name : When Pigs Have Wings.2011.1080p.BluRay.x264 . NVEE.mp4 \nFormat : MPEG-4 \nFormat profile : Base Media \nCodec ID : isom \nFile size : 1.64 GiB \nDuration : 1h 38mn \nOverall bit rate : 2 376 Kbps \nEncoded date : UTC 2013-04-08 03:49:39 \nTagged date : UTC 2013-04-08 03:49:39 \n\n  Video \n\nID : 1 \nFormat : AVC \nFormat/Info : Advanced Video Codec \nFormat profile : &lt;a class=&quot;__cf_email__&quot; href=&quot;/cdn-cgi/l/email-protection&quot; data-cfemail=&quot;eca4858b84aca0d8c2dc&quot;&gt;[email&amp;#160;protected]&lt;/a&gt;&lt;script cf-hash='f9e31' type=&quot;text/javascript&quot;&gt;\n/* &lt;![CDATA[ */!function(){try{var t=&quot;currentScript&quot;in document?document.currentScript:function(){for(var t=document.getElementsByTagName(&quot;script&quot;),e=t.length;e--;)if(t[e].getAttribute(&quot;cf-hash&quot;))return t[e]}();if(t&amp;&amp;t.previousSibling){var e,r,n,i,c=t.previousSibling,a=c.getAttribute(&quot;data-cfemail&quot;);if(a){for(e=&quot;&quot;,r=parseInt(a.substr(0,2),16),n=2;a.length-n;n+=2)i=parseInt(a.substr(n,2),16)^r,e+=String.fromCharCode(i);e=document.createTextNode(e),c.parentNode.replaceChild(e,c)}}}catch(u){}}();/* ]]&gt; */&lt;/script&gt; \nFormat settings, CABAC : Yes \nFormat settings, ReFrames : 4 frames \nCodec ID : avc1 \nCodec ID/Info : Advanced Video Coding \nDuration : 1h 38mn \nBit rate : 1 991 Kbps \nMaximum bit rate : 12.9 Mbps \nWidth : 1 920 pixels \nHeight : 1 040 pixels \nDisplay aspect ratio : 1.85:1 \nFrame rate mode : Constant \nFrame rate : 24.000 fps \nColor space : YUV \nChroma subsampling : 4:2:0 \nBit depth : 8 bits \nScan type : Progressive \nBits/(Pixel*Frame) : 0.042 \nStream size : 1.37 GiB (84%) \nTitle : 2011.1080p.BluRay.x264 .264#trackID=1:fps=&lt;a class=&quot;__cf_email__&quot; href=&quot;/cdn-cgi/l/email-protection&quot; data-cfemail=&quot;95a7a1d5d2c5d4d6a5bba0bba4b8d1d0c3b8e7f0e3a1a7ada6&quot;&gt;[email&amp;#160;protected]&lt;/a&gt;&lt;script cf-hash='f9e31' type=&quot;text/javascript&quot;&gt;\n/* &lt;![CDATA[ */!function(){try{var t=&quot;currentScript&quot;in document?document.currentScript:function(){for(var t=document.getElementsByTagName(&quot;script&quot;),e=t.length;e--;)if(t[e].getAttribute(&quot;cf-hash&quot;))return t[e]}();if(t&amp;&amp;t.previousSibling){var e,r,n,i,c=t.previousSibling,a=c.getAttribute(&quot;data-cfemail&quot;);if(a){for(e=&quot;&quot;,r=parseInt(a.substr(0,2),16),n=2;a.length-n;n+=2)i=parseInt(a.substr(n,2),16)^r,e+=String.fromCharCode(i);e=document.createTextNode(e),c.parentNode.replaceChild(e,c)}}}catch(u){}}();/* ]]&gt; */&lt;/script&gt; \nWriting library : x264 core 130 r2273 b3065e6 \nEncoding settings : cabac=1 / ref=4 / deblock=1:0:0 / analyse=0x3:0x133\n\n  Audio \n\nID : 2 \nFormat : AC-3 \nFormat/Info : Audio Coding 3 \nMode extension : CM (complete main) \nFormat settings, Endianness : Big \nCodec ID : ac-3 \nDuration : 1h 38mn \nBit rate mode : Constant \nBit rate : 384 Kbps \nChannel(s) : 6 channels \nChannel positions : Front: L C R, Side: L R, LFE \nSampling rate : 48.0 KHz \nBit depth : 16 bits \nCompression mode : Lossy \nStream size : 271 MiB (16%) \nTitle : 2011.1080p.BluRay.x264 . NVEE - [0] Arabic_audio.ac3#trackID=1:lang=&lt;a class=&quot;__cf_email__&quot; href=&quot;/cdn-cgi/l/email-protection&quot; data-cfemail=&quot;e9889ba9aeb9a8aad9c7dcc7d8c4adacbfc49b8c9fdddbd1da&quot;&gt;[email&amp;#160;protected]&lt;/a&gt;&lt;script cf-hash='f9e31' type=&quot;text/javascript&quot;&gt;\n/* &lt;![CDATA[ */!function(){try{var t=&quot;currentScript&quot;in document?document.currentScript:function(){for(var t=document.getElementsByTagName(&quot;script&quot;),e=t.length;e--;)if(t[e].getAttribute(&quot;cf-hash&quot;))return t[e]}();if(t&amp;&amp;t.previousSibling){var e,r,n,i,c=t.previousSibling,a=c.getAttribute(&quot;data-cfemail&quot;);if(a){for(e=&quot;&quot;,r=parseInt(a.substr(0,2),16),n=2;a.length-n;n+=2)i=parseInt(a.substr(n,2),16)^r,e+=String.fromCharCode(i);e=document.createTextNode(e),c.parentNode.replaceChild(e,c)}}}catch(u){}}();/* ]]&gt; */&lt;/script&gt; \nLanguage : Arabic \nEncoded date : UTC 2013-04-08 03:54:56 \nTagged date : UTC 2013-04-08 03:56:17 \n\n\n  Plot\nAfter a storm at sea, Jafaar, a poor Palestinian fisherman, reels in a pot-bellied pig along with his usual catch. He attempts to sell the &quot;impure&quot; beast, but trying to profit from a pig in Gaza isn't the easiest task in the world, especially when you are confronted with highly motivated fundamentalists. Jafaar and the pig ultimately become entangled in an extraordinary chain of events and a dubious line of work, involving the nearby Jewish community.\n\nPLEASE SEED !!\n\n(Thank You)\n\n\n","torrent":{"xt":"urn:btih:32735e42713bf60b0a18d7bb9c5c6f7aa28b3bc0","amp;dn":"When+Pigs+Have+Wings.2011.1080p.BluRay.x264+.+NVEE","amp;tr":["udp%3A%2F%2Ftracker.openbittorrent.com%3A80","udp%3A%2F%2Fopen.demonii.com%3A1337","udp%3A%2F%2Ftracker.coppersurfer.tk%3A6969","udp%3A%2F%2Fexodus.desync.com%3A6969"],"infoHash":"32735e42713bf60b0a18d7bb9c5c6f7aa28b3bc0","infoHashBuffer":{"type":"Buffer","data":[50,115,94,66,113,59,246,11,10,24,215,187,156,92,111,122,162,139,59,192]},"announce":[],"urlList":[]}}